<svg width="274" height="72" viewBox="0 0 274 72" fill="none" xmlns="http://www.w3.org/2000/svg">
<path d="M0.0681818 36L5.86364 1.09091H20.9318C23.5227 1.09091 25.7045 1.60227 27.4773 2.625C29.25 3.64773 30.5227 5.08523 31.2955 6.9375C32.0682 8.78977 32.25 10.9545 31.8409 13.4318C31.4318 15.9545 30.5227 18.1307 29.1136 19.9602C27.7159 21.7784 25.9318 23.1818 23.7614 24.1705C21.6023 25.1477 19.1818 25.6364 16.5 25.6364H7.5L8.72727 18.2727H15.8182C16.9545 18.2727 17.9545 18.0795 18.8182 17.6932C19.6818 17.2955 20.3807 16.7386 20.9148 16.0227C21.4489 15.2955 21.7955 14.4318 21.9545 13.4318C22.1136 12.4318 22.0398 11.5795 21.733 10.875C21.4375 10.1591 20.9261 9.61364 20.1989 9.23864C19.483 8.85227 18.5682 8.65909 17.4545 8.65909H14.1136L9.54545 36H0.0681818ZM46.8409 1.09091L41.0455 36H31.5682L37.3636 1.09091H46.8409ZM54.4006 36L49.9006 1.09091H60.4688L61.696 22.5682H61.9688L71.1733 1.09091H79.4915L81.6051 22.6364H81.8778L90.196 1.09091H100.764L84.6733 36H75.6051L72.946 16.5H72.6733L63.4688 36H54.4006ZM132.447 19.1591C131.811 22.9545 130.55 26.1364 128.663 28.7045C126.777 31.2727 124.487 33.2102 121.794 34.517C119.101 35.8239 116.22 36.4773 113.152 36.4773C109.879 36.4773 107.038 35.767 104.629 34.3466C102.22 32.9261 100.464 30.8466 99.3622 28.108C98.2599 25.3693 98.0384 22.0227 98.6974 18.0682C99.3111 14.2727 100.561 11.0795 102.447 8.48864C104.334 5.89773 106.635 3.9375 109.351 2.60795C112.067 1.27841 114.97 0.613635 118.061 0.613635C121.311 0.613635 124.135 1.32954 126.533 2.76136C128.942 4.19318 130.692 6.28977 131.783 9.05114C132.885 11.8125 133.107 15.1818 132.447 19.1591ZM122.902 18.0682C123.22 16.0682 123.243 14.3864 122.97 13.0227C122.697 11.6477 122.124 10.6136 121.249 9.92045C120.374 9.21591 119.197 8.86364 117.72 8.86364C116.038 8.86364 114.55 9.27273 113.254 10.0909C111.959 10.9091 110.885 12.0852 110.033 13.6193C109.18 15.1534 108.584 17 108.243 19.1591C107.879 21.1818 107.845 22.8636 108.141 24.2045C108.447 25.5455 109.05 26.5511 109.947 27.2216C110.857 27.892 112.038 28.2273 113.493 28.2273C115.152 28.2273 116.618 27.8295 117.891 27.0341C119.175 26.2386 120.237 25.0852 121.078 23.5739C121.93 22.0625 122.538 20.2273 122.902 18.0682Z" fill="url(#paint0_linear_12_10)"/>
<rect x="139" y="1" width="135" height="35" rx="15" fill="url(#paint1_linear_12_10)"/>
<path d="M0.0198864 54L1.71023 43.8182H6.10511C6.8608 43.8182 7.49716 43.9673 8.0142 44.2656C8.53125 44.5639 8.90246 44.9832 9.12784 45.5234C9.35322 46.0637 9.40625 46.6951 9.28693 47.4176C9.16761 48.1534 8.90246 48.7881 8.49148 49.3217C8.08381 49.852 7.56345 50.2614 6.9304 50.5497C6.30066 50.8348 5.5947 50.9773 4.8125 50.9773H2.1875L2.54545 48.8295H4.61364C4.94508 48.8295 5.23674 48.7732 5.48864 48.6605C5.74053 48.5445 5.94437 48.3821 6.10014 48.1733C6.25592 47.9612 6.35701 47.7093 6.40341 47.4176C6.44981 47.1259 6.42827 46.8774 6.33878 46.6719C6.2526 46.4631 6.10346 46.304 5.89134 46.1946C5.68253 46.0819 5.41572 46.0256 5.09091 46.0256H4.11648L2.78409 54H0.0198864ZM9.24716 54L10.5199 46.3636H13.1847L12.946 47.8153H13.0256C13.2543 47.2784 13.541 46.8857 13.8857 46.6371C14.2304 46.3885 14.6065 46.2642 15.0142 46.2642C15.1335 46.2642 15.2479 46.2741 15.3572 46.294C15.4699 46.3106 15.581 46.3338 15.6903 46.3636L15.2926 48.7102C15.1634 48.6605 15.0026 48.6257 14.8104 48.6058C14.6181 48.5826 14.4474 48.571 14.2983 48.571C14.0331 48.571 13.7846 48.6323 13.5526 48.755C13.3239 48.8743 13.1283 49.0433 12.9659 49.2621C12.8068 49.4775 12.7008 49.7311 12.6477 50.0227L11.9915 54H9.24716ZM18.5192 54.1392C17.7038 54.1392 17.0277 53.9834 16.4908 53.6719C15.9538 53.357 15.576 52.9062 15.3572 52.3196C15.1385 51.7296 15.0987 51.0237 15.2379 50.2017C15.3705 49.4129 15.6439 48.7235 16.0582 48.1335C16.4759 47.5436 17.0012 47.0845 17.6342 46.7564C18.2706 46.4283 18.9832 46.2642 19.772 46.2642C20.3487 46.2642 20.8542 46.3537 21.2884 46.5327C21.7259 46.7116 22.0822 46.9718 22.3572 47.3132C22.6323 47.6546 22.8179 48.0672 22.9141 48.5511C23.0135 49.0317 23.0135 49.5753 22.9141 50.1818L22.8146 50.8182H15.9936L16.2322 49.3068H20.5277C20.5608 49.0881 20.5393 48.8958 20.4631 48.7301C20.3902 48.5611 20.2725 48.4302 20.1101 48.3374C19.951 48.2412 19.7588 48.1932 19.5334 48.1932C19.308 48.1932 19.0959 48.2412 18.897 48.3374C18.7015 48.4335 18.5341 48.5677 18.3949 48.7401C18.259 48.9124 18.1679 49.1146 18.1214 49.3466L17.8232 50.9375C17.7834 51.1828 17.7983 51.4015 17.8679 51.5938C17.9375 51.786 18.0585 51.9368 18.2308 52.0462C18.4032 52.1555 18.6252 52.2102 18.897 52.2102C19.0826 52.2102 19.2583 52.1854 19.424 52.1357C19.593 52.0826 19.7422 52.0064 19.8714 51.907C20.004 51.8042 20.1101 51.6799 20.1896 51.5341H22.6953C22.5163 52.0644 22.233 52.5251 21.8452 52.9162C21.4607 53.304 20.9867 53.6056 20.4233 53.821C19.8632 54.0331 19.2285 54.1392 18.5192 54.1392ZM23.4174 54L24.6902 46.3636H27.2953L27.0566 47.8153H27.1362C27.3715 47.3381 27.7046 46.9602 28.1355 46.6818C28.5663 46.4034 29.0486 46.2642 29.5822 46.2642C30.1158 46.2642 30.5533 46.4067 30.8947 46.6918C31.2361 46.9735 31.4084 47.348 31.4118 47.8153H31.4913C31.6968 47.348 32.0332 46.9735 32.5005 46.6918C32.9679 46.4067 33.4866 46.2642 34.0566 46.2642C34.7825 46.2642 35.3343 46.4995 35.7122 46.9702C36.0933 47.4408 36.2176 48.0672 36.085 48.8494L35.2299 54H32.4856L33.2413 49.5455C33.2877 49.2107 33.2413 48.9489 33.1021 48.7599C32.9629 48.5677 32.7508 48.4716 32.4657 48.4716C32.184 48.4716 31.9454 48.5677 31.7498 48.7599C31.5576 48.9489 31.4383 49.2107 31.3919 49.5455L30.6362 54H28.0112L28.7669 49.5455C28.8133 49.2107 28.7669 48.9489 28.6277 48.7599C28.4885 48.5677 28.2763 48.4716 27.9913 48.4716C27.8057 48.4716 27.6367 48.5147 27.4842 48.6009C27.335 48.687 27.2108 48.8113 27.1113 48.9737C27.0152 49.1328 26.9506 49.3234 26.9174 49.5455L26.1618 54H23.4174ZM36.5636 54L37.8363 46.3636H40.5806L39.3079 54H36.5636ZM39.3278 45.5682C38.9566 45.5682 38.6566 45.4455 38.4279 45.2003C38.1992 44.9517 38.1147 44.6567 38.1744 44.3153C38.234 43.9673 38.4163 43.6723 38.7212 43.4304C39.0262 43.1851 39.3642 43.0625 39.7354 43.0625C40.11 43.0625 40.4083 43.1851 40.6303 43.4304C40.8524 43.6723 40.9353 43.9673 40.8789 44.3153C40.8259 44.6567 40.6469 44.9517 40.342 45.2003C40.0404 45.4455 39.7023 45.5682 39.3278 45.5682ZM46.2147 50.6591L46.9306 46.3636H49.6749L48.4022 54H45.7971L46.0357 52.5483H45.9561C45.7208 53.0355 45.3695 53.4167 44.9022 53.6918C44.4382 53.9635 43.9211 54.0994 43.351 54.0994C42.8174 54.0994 42.3716 53.9768 42.0137 53.7315C41.6557 53.4863 41.4022 53.1482 41.253 52.7173C41.1039 52.2865 41.074 51.7926 41.1635 51.2358L41.9789 46.3636H44.7232L44.0073 50.6591C43.9509 51.0369 43.999 51.3336 44.1515 51.549C44.3072 51.7644 44.5575 51.8722 44.9022 51.8722C45.1309 51.8722 45.3364 51.8241 45.5186 51.728C45.7042 51.6286 45.8567 51.4893 45.976 51.3104C46.0987 51.1281 46.1782 50.911 46.2147 50.6591ZM49.8178 54L51.0906 46.3636H53.6957L53.457 47.8153H53.5366C53.7719 47.3381 54.105 46.9602 54.5359 46.6818C54.9667 46.4034 55.449 46.2642 55.9826 46.2642C56.5162 46.2642 56.9537 46.4067 57.2951 46.6918C57.6365 46.9735 57.8088 47.348 57.8121 47.8153H57.8917C58.0972 47.348 58.4336 46.9735 58.9009 46.6918C59.3683 46.4067 59.887 46.2642 60.457 46.2642C61.1829 46.2642 61.7347 46.4995 62.1126 46.9702C62.4937 47.4408 62.618 48.0672 62.4854 48.8494L61.6303 54H58.886L59.6417 49.5455C59.6881 49.2107 59.6417 48.9489 59.5025 48.7599C59.3633 48.5677 59.1512 48.4716 58.8661 48.4716C58.5844 48.4716 58.3458 48.5677 58.1502 48.7599C57.958 48.9489 57.8387 49.2107 57.7923 49.5455L57.0366 54H54.4116L55.1673 49.5455C55.2137 49.2107 55.1673 48.9489 55.0281 48.7599C54.8888 48.5677 54.6767 48.4716 54.3917 48.4716C54.2061 48.4716 54.0371 48.5147 53.8846 48.6009C53.7354 48.687 53.6112 48.8113 53.5117 48.9737C53.4156 49.1328 53.351 49.3234 53.3178 49.5455L52.5621 54H49.8178ZM70.1678 43.8182L68.4775 54H65.7132L67.4036 43.8182H70.1678ZM73.3074 49.7045L72.5914 54H69.8471L71.1199 46.3636H73.725L73.4863 47.8153H73.5659C73.8078 47.3281 74.1608 46.9486 74.6248 46.6768C75.0922 46.4018 75.6075 46.2642 76.171 46.2642C76.7112 46.2642 77.1603 46.3868 77.5183 46.6321C77.8762 46.8774 78.1298 47.2154 78.2789 47.6463C78.4281 48.0772 78.4546 48.571 78.3585 49.1278L77.5431 54H74.7988L75.5147 49.7045C75.5777 49.3267 75.5313 49.0301 75.3755 48.8146C75.2231 48.5992 74.9712 48.4915 74.6199 48.4915C74.3978 48.4915 74.194 48.5412 74.0083 48.6406C73.8261 48.7367 73.6736 48.8759 73.551 49.0582C73.4316 49.2372 73.3504 49.4527 73.3074 49.7045ZM84.7047 46.3636L84.3667 48.3523H79.3354L79.6735 46.3636H84.7047ZM80.9462 44.5341H83.6905L82.5272 51.544C82.5106 51.6501 82.5139 51.7396 82.5371 51.8125C82.5603 51.8821 82.6067 51.9351 82.6763 51.9716C82.7492 52.0047 82.8453 52.0213 82.9647 52.0213C83.0442 52.0213 83.142 52.0114 83.258 51.9915C83.374 51.9683 83.4618 51.9517 83.5215 51.9418L83.601 53.8707C83.4618 53.9105 83.2746 53.9553 83.0392 54.005C82.8072 54.058 82.5371 54.0928 82.2289 54.1094C81.5859 54.1392 81.0622 54.0713 80.6578 53.9055C80.2568 53.7398 79.9784 53.4813 79.8226 53.13C79.6702 52.7753 79.6436 52.3329 79.7431 51.8026L80.9462 44.5341ZM88.109 54.1392C87.2937 54.1392 86.6175 53.9834 86.0806 53.6719C85.5437 53.357 85.1658 52.9062 84.9471 52.3196C84.7283 51.7296 84.6886 51.0237 84.8278 50.2017C84.9603 49.4129 85.2338 48.7235 85.6481 48.1335C86.0657 47.5436 86.591 47.0845 87.2241 46.7564C87.8604 46.4283 88.573 46.2642 89.3619 46.2642C89.9386 46.2642 90.444 46.3537 90.8782 46.5327C91.3157 46.7116 91.672 46.9718 91.9471 47.3132C92.2222 47.6546 92.4078 48.0672 92.5039 48.5511C92.6033 49.0317 92.6033 49.5753 92.5039 50.1818L92.4045 50.8182H85.5835L85.8221 49.3068H90.1175C90.1507 49.0881 90.1291 48.8958 90.0529 48.7301C89.98 48.5611 89.8623 48.4302 89.6999 48.3374C89.5408 48.2412 89.3486 48.1932 89.1232 48.1932C88.8978 48.1932 88.6857 48.2412 88.4869 48.3374C88.2913 48.4335 88.1239 48.5677 87.9847 48.7401C87.8488 48.9124 87.7577 49.1146 87.7113 49.3466L87.413 50.9375C87.3732 51.1828 87.3881 51.4015 87.4577 51.5938C87.5273 51.786 87.6483 51.9368 87.8207 52.0462C87.993 52.1555 88.2151 52.2102 88.4869 52.2102C88.6725 52.2102 88.8481 52.1854 89.0138 52.1357C89.1829 52.0826 89.332 52.0064 89.4613 51.907C89.5939 51.8042 89.6999 51.6799 89.7795 51.5341H92.2852C92.1062 52.0644 91.8228 52.5251 91.435 52.9162C91.0505 53.304 90.5766 53.6056 90.0131 53.821C89.453 54.0331 88.8183 54.1392 88.109 54.1392ZM92.9874 54L94.2601 46.3636H96.9249L96.6863 47.8153H96.7658C96.9945 47.2784 97.2812 46.8857 97.6259 46.6371C97.9706 46.3885 98.3468 46.2642 98.7544 46.2642C98.8738 46.2642 98.9881 46.2741 99.0975 46.294C99.2102 46.3106 99.3212 46.3338 99.4306 46.3636L99.0328 48.7102C98.9036 48.6605 98.7428 48.6257 98.5506 48.6058C98.3584 48.5826 98.1877 48.571 98.0385 48.571C97.7734 48.571 97.5248 48.6323 97.2928 48.755C97.0641 48.8743 96.8685 49.0433 96.7061 49.2621C96.5471 49.4775 96.441 49.7311 96.388 50.0227L95.7317 54H92.9874ZM102.538 49.7045L101.822 54H99.0776L100.35 46.3636H102.955L102.717 47.8153H102.796C103.038 47.3281 103.391 46.9486 103.855 46.6768C104.323 46.4018 104.838 46.2642 105.401 46.2642C105.942 46.2642 106.391 46.3868 106.749 46.6321C107.107 46.8774 107.36 47.2154 107.509 47.6463C107.659 48.0772 107.685 48.571 107.589 49.1278L106.774 54H104.029L104.745 49.7045C104.808 49.3267 104.762 49.0301 104.606 48.8146C104.454 48.5992 104.202 48.4915 103.85 48.4915C103.628 48.4915 103.424 48.5412 103.239 48.6406C103.057 48.7367 102.904 48.8759 102.781 49.0582C102.662 49.2372 102.581 49.4527 102.538 49.7045ZM110.216 54.1193C109.733 54.1193 109.317 54.0398 108.969 53.8807C108.624 53.7183 108.372 53.473 108.213 53.1449C108.057 52.8134 108.022 52.3958 108.108 51.892C108.178 51.4744 108.309 51.1181 108.501 50.8232C108.693 50.5282 108.932 50.2862 109.217 50.0973C109.502 49.9084 109.822 49.7642 110.177 49.6648C110.535 49.562 110.912 49.4957 111.31 49.4659C111.741 49.4328 112.091 49.3913 112.359 49.3416C112.628 49.2919 112.828 49.224 112.961 49.1378C113.093 49.0516 113.173 48.9356 113.199 48.7898V48.7699C113.229 48.571 113.176 48.4186 113.04 48.3125C112.908 48.2064 112.722 48.1534 112.483 48.1534C112.225 48.1534 112.001 48.2098 111.812 48.3224C111.627 48.4351 111.499 48.6108 111.43 48.8494H108.904C109.01 48.3854 109.227 47.9579 109.555 47.5668C109.887 47.1723 110.326 46.8575 110.873 46.6222C111.423 46.3835 112.079 46.2642 112.841 46.2642C113.385 46.2642 113.862 46.3288 114.273 46.4581C114.684 46.584 115.024 46.7614 115.292 46.9901C115.564 47.2154 115.755 47.4806 115.864 47.7855C115.977 48.0871 116.003 48.4152 115.944 48.7699L115.069 54H112.503L112.682 52.9261H112.623C112.424 53.2112 112.2 53.4415 111.952 53.6172C111.706 53.7929 111.438 53.9205 111.146 54C110.858 54.0795 110.548 54.1193 110.216 54.1193ZM111.41 52.3892C111.615 52.3892 111.817 52.3461 112.016 52.2599C112.215 52.1738 112.386 52.0495 112.528 51.8871C112.671 51.7247 112.762 51.5275 112.802 51.2955L112.901 50.6591C112.828 50.6889 112.747 50.7171 112.657 50.7436C112.571 50.7668 112.48 50.79 112.384 50.8132C112.291 50.8364 112.192 50.858 112.086 50.8778C111.983 50.8977 111.877 50.9176 111.768 50.9375C111.549 50.9706 111.365 51.0253 111.216 51.1016C111.067 51.1745 110.951 51.2656 110.868 51.375C110.785 51.4811 110.733 51.6004 110.714 51.733C110.684 51.9418 110.732 52.1042 110.858 52.2202C110.987 52.3329 111.171 52.3892 111.41 52.3892ZM122.207 46.3636L121.869 48.3523H116.837L117.175 46.3636H122.207ZM118.448 44.5341H121.192L120.029 51.544C120.013 51.6501 120.016 51.7396 120.039 51.8125C120.062 51.8821 120.109 51.9351 120.178 51.9716C120.251 52.0047 120.347 52.0213 120.467 52.0213C120.546 52.0213 120.644 52.0114 120.76 51.9915C120.876 51.9683 120.964 51.9517 121.023 51.9418L121.103 53.8707C120.964 53.9105 120.777 53.9553 120.541 54.005C120.309 54.058 120.039 54.0928 119.731 54.1094C119.088 54.1392 118.564 54.0713 118.16 53.9055C117.759 53.7398 117.48 53.4813 117.325 53.13C117.172 52.7753 117.146 52.3329 117.245 51.8026L118.448 44.5341ZM122.054 54L123.327 46.3636H126.071L124.798 54H122.054ZM124.818 45.5682C124.447 45.5682 124.147 45.4455 123.918 45.2003C123.689 44.9517 123.605 44.6567 123.665 44.3153C123.724 43.9673 123.907 43.6723 124.211 43.4304C124.516 43.1851 124.854 43.0625 125.226 43.0625C125.6 43.0625 125.898 43.1851 126.121 43.4304C126.343 43.6723 126.425 43.9673 126.369 44.3153C126.316 44.6567 126.137 44.9517 125.832 45.2003C125.531 45.4455 125.193 45.5682 124.818 45.5682ZM129.855 54.1392C129.027 54.1392 128.344 53.9751 127.807 53.647C127.274 53.3156 126.899 52.8549 126.684 52.2649C126.468 51.6716 126.425 50.9839 126.554 50.2017C126.684 49.4195 126.954 48.7334 127.365 48.1435C127.776 47.5502 128.304 47.0895 128.951 46.7614C129.597 46.4299 130.336 46.2642 131.168 46.2642C131.993 46.2642 132.673 46.4299 133.206 46.7614C133.743 47.0895 134.119 47.5502 134.335 48.1435C134.554 48.7334 134.598 49.4195 134.469 50.2017C134.34 50.9839 134.068 51.6716 133.654 52.2649C133.239 52.8549 132.709 53.3156 132.063 53.647C131.42 53.9751 130.684 54.1392 129.855 54.1392ZM130.194 52.1108C130.432 52.1108 130.649 52.0329 130.845 51.8771C131.044 51.7214 131.213 51.4993 131.352 51.2109C131.494 50.9226 131.599 50.5795 131.665 50.1818C131.731 49.7808 131.741 49.4377 131.695 49.1527C131.649 48.8643 131.552 48.6423 131.407 48.4865C131.261 48.3307 131.069 48.2528 130.83 48.2528C130.591 48.2528 130.373 48.3307 130.174 48.4865C129.975 48.6423 129.806 48.8643 129.667 49.1527C129.527 49.4377 129.425 49.7808 129.358 50.1818C129.292 50.5795 129.28 50.9226 129.324 51.2109C129.37 51.4993 129.466 51.7214 129.612 51.8771C129.761 52.0329 129.955 52.1108 130.194 52.1108ZM138.426 49.7045L137.711 54H134.966L136.239 46.3636H138.844L138.605 47.8153H138.685C138.927 47.3281 139.28 46.9486 139.744 46.6768C140.211 46.4018 140.727 46.2642 141.29 46.2642C141.83 46.2642 142.279 46.3868 142.637 46.6321C142.995 46.8774 143.249 47.2154 143.398 47.6463C143.547 48.0772 143.574 48.571 143.478 49.1278L142.662 54H139.918L140.634 49.7045C140.697 49.3267 140.65 49.0301 140.495 48.8146C140.342 48.5992 140.09 48.4915 139.739 48.4915C139.517 48.4915 139.313 48.5412 139.127 48.6406C138.945 48.7367 138.793 48.8759 138.67 49.0582C138.551 49.2372 138.47 49.4527 138.426 49.7045ZM146.105 54.1193C145.621 54.1193 145.205 54.0398 144.857 53.8807C144.513 53.7183 144.261 53.473 144.102 53.1449C143.946 52.8134 143.911 52.3958 143.997 51.892C144.067 51.4744 144.198 51.1181 144.39 50.8232C144.582 50.5282 144.821 50.2862 145.106 50.0973C145.391 49.9084 145.711 49.7642 146.065 49.6648C146.423 49.562 146.801 49.4957 147.199 49.4659C147.63 49.4328 147.979 49.3913 148.248 49.3416C148.516 49.2919 148.717 49.224 148.849 49.1378C148.982 49.0516 149.062 48.9356 149.088 48.7898V48.7699C149.118 48.571 149.065 48.4186 148.929 48.3125C148.796 48.2064 148.611 48.1534 148.372 48.1534C148.114 48.1534 147.89 48.2098 147.701 48.3224C147.515 48.4351 147.388 48.6108 147.318 48.8494H144.793C144.899 48.3854 145.116 47.9579 145.444 47.5668C145.775 47.1723 146.214 46.8575 146.761 46.6222C147.312 46.3835 147.968 46.2642 148.73 46.2642C149.274 46.2642 149.751 46.3288 150.162 46.4581C150.573 46.584 150.913 46.7614 151.181 46.9901C151.453 47.2154 151.643 47.4806 151.753 47.7855C151.866 48.0871 151.892 48.4152 151.832 48.7699L150.957 54H148.392L148.571 52.9261H148.511C148.313 53.2112 148.089 53.4415 147.84 53.6172C147.595 53.7929 147.326 53.9205 147.035 54C146.746 54.0795 146.437 54.1193 146.105 54.1193ZM147.298 52.3892C147.504 52.3892 147.706 52.3461 147.905 52.2599C148.104 52.1738 148.274 52.0495 148.417 51.8871C148.559 51.7247 148.651 51.5275 148.69 51.2955L148.79 50.6591C148.717 50.6889 148.636 50.7171 148.546 50.7436C148.46 50.7668 148.369 50.79 148.273 50.8132C148.18 50.8364 148.08 50.858 147.974 50.8778C147.872 50.8977 147.766 50.9176 147.656 50.9375C147.438 50.9706 147.254 51.0253 147.104 51.1016C146.955 51.1745 146.839 51.2656 146.756 51.375C146.674 51.4811 146.622 51.6004 146.602 51.733C146.572 51.9418 146.621 52.1042 146.746 52.2202C146.876 52.3329 147.06 52.3892 147.298 52.3892ZM156.703 43.8182L155.013 54H152.269L153.959 43.8182H156.703ZM2.60511 71L1.29261 60.8182H4.375L4.73295 67.0824H4.8125L7.49716 60.8182H9.9233L10.5398 67.1023H10.6193L13.0455 60.8182H16.1278L11.4347 71H8.78977L8.0142 65.3125H7.93466L5.25 71H2.60511ZM18.1227 71.1392C17.3074 71.1392 16.6312 70.9834 16.0943 70.6719C15.5574 70.357 15.1795 69.9062 14.9608 69.3196C14.742 68.7296 14.7022 68.0237 14.8414 67.2017C14.974 66.4129 15.2475 65.7235 15.6618 65.1335C16.0794 64.5436 16.6047 64.0845 17.2377 63.7564C17.8741 63.4283 18.5867 63.2642 19.3755 63.2642C19.9522 63.2642 20.4577 63.3537 20.8919 63.5327C21.3294 63.7116 21.6857 63.9718 21.9608 64.3132C22.2359 64.6546 22.4215 65.0672 22.5176 65.5511C22.617 66.0317 22.617 66.5753 22.5176 67.1818L22.4181 67.8182H15.5971L15.8358 66.3068H20.1312C20.1644 66.0881 20.1428 65.8958 20.0666 65.7301C19.9937 65.5611 19.876 65.4302 19.7136 65.3374C19.5545 65.2412 19.3623 65.1932 19.1369 65.1932C18.9115 65.1932 18.6994 65.2412 18.5005 65.3374C18.305 65.4335 18.1376 65.5677 17.9984 65.7401C17.8625 65.9124 17.7714 66.1146 17.725 66.3466L17.4267 67.9375C17.3869 68.1828 17.4018 68.4015 17.4714 68.5938C17.541 68.786 17.662 68.9368 17.8343 69.0462C18.0067 69.1555 18.2288 69.2102 18.5005 69.2102C18.6861 69.2102 18.8618 69.1854 19.0275 69.1357C19.1966 69.0826 19.3457 69.0064 19.475 68.907C19.6075 68.8042 19.7136 68.6799 19.7931 68.5341H22.2988C22.1199 69.0644 21.8365 69.5251 21.4487 69.9162C21.0642 70.304 20.5903 70.6056 20.0268 70.821C19.4667 71.0331 18.832 71.1392 18.1227 71.1392ZM22.9613 71L24.6516 60.8182H27.396L26.7596 64.696H26.7994C26.9386 64.4375 27.1225 64.2005 27.3512 63.9851C27.5799 63.7663 27.8484 63.5923 28.1566 63.4631C28.4648 63.3305 28.8079 63.2642 29.1857 63.2642C29.6895 63.2642 30.1452 63.3984 30.5529 63.6669C30.9639 63.9354 31.2638 64.358 31.4528 64.9347C31.645 65.5114 31.6649 66.2604 31.5124 67.1818C31.3666 68.0634 31.1081 68.7943 30.7369 69.3743C30.3656 69.9543 29.9281 70.3868 29.4244 70.6719C28.9206 70.9569 28.3969 71.0994 27.8533 71.0994C27.4954 71.0994 27.1855 71.0414 26.9237 70.9254C26.6651 70.8061 26.4547 70.6454 26.2923 70.4432C26.1332 70.2377 26.0238 70.0057 25.9641 69.7472H25.8846L25.6857 71H22.9613ZM26.2823 67.1818C26.2227 67.553 26.2193 67.8745 26.2724 68.1463C26.3254 68.4148 26.4298 68.6236 26.5856 68.7727C26.7414 68.9186 26.9452 68.9915 27.1971 68.9915C27.449 68.9915 27.676 68.9202 27.8782 68.7777C28.0804 68.6319 28.2511 68.4247 28.3903 68.1562C28.5295 67.8845 28.6289 67.5597 28.6886 67.1818C28.7482 66.804 28.7532 66.4808 28.7035 66.2124C28.6538 65.9406 28.5527 65.7334 28.4002 65.5909C28.2478 65.4451 28.0456 65.3722 27.7937 65.3722C27.5418 65.3722 27.3131 65.4451 27.1076 65.5909C26.9021 65.7334 26.7281 65.9406 26.5856 66.2124C26.4431 66.4808 26.342 66.804 26.2823 67.1818ZM37.881 65.9091L37.543 67.9773H32.7702L33.1083 65.9091H37.881ZM38.6293 71L40.3196 60.8182H43.0639L42.4276 64.696H42.4673C42.6065 64.4375 42.7905 64.2005 43.0192 63.9851C43.2479 63.7663 43.5163 63.5923 43.8246 63.4631C44.1328 63.3305 44.4759 63.2642 44.8537 63.2642C45.3575 63.2642 45.8132 63.3984 46.2209 63.6669C46.6319 63.9354 46.9318 64.358 47.1207 64.9347C47.313 65.5114 47.3329 66.2604 47.1804 67.1818C47.0346 68.0634 46.776 68.7943 46.4048 69.3743C46.0336 69.9543 45.5961 70.3868 45.0923 70.6719C44.5885 70.9569 44.0649 71.0994 43.5213 71.0994C43.1634 71.0994 42.8535 71.0414 42.5916 70.9254C42.3331 70.8061 42.1226 70.6454 41.9602 70.4432C41.8011 70.2377 41.6918 70.0057 41.6321 69.7472H41.5526L41.3537 71H38.6293ZM41.9503 67.1818C41.8906 67.553 41.8873 67.8745 41.9403 68.1463C41.9934 68.4148 42.0978 68.6236 42.2536 68.7727C42.4093 68.9186 42.6132 68.9915 42.8651 68.9915C43.117 68.9915 43.344 68.9202 43.5462 68.7777C43.7483 68.6319 43.919 68.4247 44.0582 68.1562C44.1974 67.8845 44.2969 67.5597 44.3565 67.1818C44.4162 66.804 44.4212 66.4808 44.3714 66.2124C44.3217 65.9406 44.2206 65.7334 44.0682 65.5909C43.9157 65.4451 43.7135 65.3722 43.4616 65.3722C43.2098 65.3722 42.9811 65.4451 42.7756 65.5909C42.5701 65.7334 42.3961 65.9406 42.2536 66.2124C42.111 66.4808 42.0099 66.804 41.9503 67.1818ZM49.8004 71.1193C49.3165 71.1193 48.9006 71.0398 48.5526 70.8807C48.2079 70.7183 47.956 70.473 47.7969 70.1449C47.6411 69.8134 47.6063 69.3958 47.6925 68.892C47.7621 68.4744 47.893 68.1181 48.0852 67.8232C48.2775 67.5282 48.5161 67.2862 48.8011 67.0973C49.0862 66.9084 49.406 66.7642 49.7607 66.6648C50.1186 66.562 50.4964 66.4957 50.8942 66.4659C51.325 66.4328 51.6747 66.3913 51.9432 66.3416C52.2116 66.2919 52.4122 66.224 52.5447 66.1378C52.6773 66.0516 52.7569 65.9356 52.7834 65.7898V65.7699C52.8132 65.571 52.7602 65.4186 52.6243 65.3125C52.4917 65.2064 52.3061 65.1534 52.0675 65.1534C51.8089 65.1534 51.5852 65.2098 51.3963 65.3224C51.2107 65.4351 51.0831 65.6108 51.0135 65.8494H48.4879C48.594 65.3854 48.8111 64.9579 49.1392 64.5668C49.4706 64.1723 49.9098 63.8575 50.4567 63.6222C51.0069 63.3835 51.6631 63.2642 52.4254 63.2642C52.969 63.2642 53.4463 63.3288 53.8572 63.4581C54.2682 63.584 54.608 63.7614 54.8764 63.9901C55.1482 64.2154 55.3388 64.4806 55.4482 64.7855C55.5608 65.0871 55.5874 65.4152 55.5277 65.7699L54.6527 71H52.0874L52.2663 69.9261H52.2067C52.0078 70.2112 51.7841 70.4415 51.5355 70.6172C51.2902 70.7929 51.0218 70.9205 50.7301 71C50.4418 71.0795 50.1319 71.1193 49.8004 71.1193ZM50.9936 69.3892C51.1991 69.3892 51.4013 69.3461 51.6001 69.2599C51.799 69.1738 51.9697 69.0495 52.1122 68.8871C52.2547 68.7247 52.3459 68.5275 52.3857 68.2955L52.4851 67.6591C52.4122 67.6889 52.331 67.7171 52.2415 67.7436C52.1553 67.7668 52.0642 67.79 51.968 67.8132C51.8752 67.8364 51.7758 67.858 51.6697 67.8778C51.567 67.8977 51.4609 67.9176 51.3516 67.9375C51.1328 67.9706 50.9489 68.0253 50.7997 68.1016C50.6506 68.1745 50.5346 68.2656 50.4517 68.375C50.3688 68.4811 50.3175 68.6004 50.2976 68.733C50.2678 68.9418 50.3158 69.1042 50.4418 69.2202C50.571 69.3329 50.755 69.3892 50.9936 69.3892ZM63.7793 65.8494H61.3134C61.3266 65.6903 61.2985 65.5545 61.2289 65.4418C61.1593 65.3291 61.0615 65.2429 60.9355 65.1832C60.8129 65.1236 60.6737 65.0938 60.5179 65.0938C60.2462 65.0938 59.9992 65.1551 59.7772 65.2777C59.5551 65.397 59.4308 65.5545 59.4043 65.75C59.3877 65.8262 59.4126 65.8975 59.4789 65.9638C59.5452 66.0301 59.7192 66.0914 60.0009 66.1477L61.5123 66.4261C62.2679 66.5653 62.8181 66.8189 63.1628 67.1868C63.5108 67.5514 63.6368 68.0336 63.5407 68.6335C63.4512 69.1539 63.2225 69.6013 62.8546 69.9759C62.4867 70.3504 62.0194 70.6387 61.4526 70.8409C60.8891 71.0398 60.266 71.1392 59.5833 71.1392C58.3801 71.1392 57.4786 70.8989 56.8787 70.4183C56.2821 69.9377 56.0104 69.3097 56.0634 68.5341H58.7282C58.7348 68.7827 58.8176 68.9699 58.9767 69.0959C59.1391 69.2185 59.3546 69.2831 59.623 69.2898C59.9147 69.2997 60.1699 69.2417 60.3887 69.1158C60.6074 68.9865 60.7301 68.8258 60.7566 68.6335C60.7665 68.5241 60.7185 68.4413 60.6124 68.3849C60.5096 68.3286 60.3124 68.2723 60.0208 68.2159L58.7083 67.9773C57.9526 67.8414 57.4024 67.5696 57.0577 67.1619C56.713 66.7509 56.5937 66.2273 56.6998 65.5909C56.7859 65.0838 56.9914 64.6579 57.3162 64.3132C57.6444 63.9685 58.0752 63.7083 58.6088 63.5327C59.1425 63.3537 59.7589 63.2642 60.4583 63.2642C61.6017 63.2642 62.4668 63.4946 63.0534 63.9553C63.6434 64.4126 63.8854 65.044 63.7793 65.8494ZM67.8336 71.1392C67.0183 71.1392 66.3422 70.9834 65.8052 70.6719C65.2683 70.357 64.8904 69.9062 64.6717 69.3196C64.4529 68.7296 64.4132 68.0237 64.5524 67.2017C64.685 66.4129 64.9584 65.7235 65.3727 65.1335C65.7903 64.5436 66.3156 64.0845 66.9487 63.7564C67.585 63.4283 68.2976 63.2642 69.0865 63.2642C69.6632 63.2642 70.1686 63.3537 70.6028 63.5327C71.0403 63.7116 71.3966 63.9718 71.6717 64.3132C71.9468 64.6546 72.1324 65.0672 72.2285 65.5511C72.3279 66.0317 72.3279 66.5753 72.2285 67.1818L72.1291 67.8182H65.3081L65.5467 66.3068H69.8422C69.8753 66.0881 69.8538 65.8958 69.7775 65.7301C69.7046 65.5611 69.5869 65.4302 69.4245 65.3374C69.2654 65.2412 69.0732 65.1932 68.8478 65.1932C68.6225 65.1932 68.4103 65.2412 68.2115 65.3374C68.0159 65.4335 67.8485 65.5677 67.7093 65.7401C67.5734 65.9124 67.4823 66.1146 67.4359 66.3466L67.1376 67.9375C67.0978 68.1828 67.1127 68.4015 67.1824 68.5938C67.252 68.786 67.3729 68.9368 67.5453 69.0462C67.7176 69.1555 67.9397 69.2102 68.2115 69.2102C68.3971 69.2102 68.5727 69.1854 68.7385 69.1357C68.9075 69.0826 69.0566 69.0064 69.1859 68.907C69.3185 68.8042 69.4245 68.6799 69.5041 68.5341H72.0098C71.8308 69.0644 71.5474 69.5251 71.1596 69.9162C70.7752 70.304 70.3012 70.6056 69.7377 70.821C69.1776 71.0331 68.5429 71.1392 67.8336 71.1392ZM75.4663 71.0994C74.9227 71.0994 74.4454 70.9569 74.0344 70.6719C73.6268 70.3868 73.3335 69.9543 73.1545 69.3743C72.9788 68.7943 72.9639 68.0634 73.1097 67.1818C73.2622 66.2604 73.529 65.5114 73.9102 64.9347C74.2946 64.358 74.7354 63.9354 75.2326 63.6669C75.7331 63.3984 76.2352 63.2642 76.739 63.2642C77.1168 63.2642 77.4367 63.3305 77.6985 63.4631C77.9637 63.5923 78.1741 63.7663 78.3299 63.9851C78.4857 64.2005 78.5917 64.4375 78.6481 64.696H78.6879L79.3342 60.8182H82.0785L80.3881 71H77.6637L77.8725 69.7472H77.8129C77.6637 70.0057 77.4731 70.2377 77.2411 70.4432C77.0124 70.6454 76.7489 70.8061 76.4506 70.9254C76.1523 71.0414 75.8242 71.0994 75.4663 71.0994ZM76.8285 68.9915C77.0804 68.9915 77.3091 68.9186 77.5146 68.7727C77.7201 68.6236 77.8941 68.4148 78.0366 68.1463C78.1791 67.8745 78.2802 67.553 78.3398 67.1818C78.4028 66.804 78.4078 66.4808 78.3548 66.2124C78.3017 65.9406 78.1957 65.7334 78.0366 65.5909C77.8808 65.4451 77.677 65.3722 77.4251 65.3722C77.1732 65.3722 76.9461 65.4451 76.744 65.5909C76.5418 65.7334 76.3711 65.9406 76.2319 66.2124C76.096 66.4808 75.9966 66.804 75.9336 67.1818C75.8706 67.5597 75.8623 67.8845 75.9087 68.1562C75.9585 68.4247 76.0612 68.6319 76.217 68.7777C76.3728 68.9202 76.5766 68.9915 76.8285 68.9915ZM95.1637 66.0881C94.9781 67.1951 94.6102 68.1231 94.06 68.8722C93.5098 69.6212 92.842 70.1863 92.0565 70.5675C91.271 70.9486 90.4308 71.1392 89.5359 71.1392C88.5813 71.1392 87.7527 70.9321 87.0501 70.5178C86.3474 70.1035 85.8353 69.4969 85.5138 68.6982C85.1924 67.8994 85.1277 66.9233 85.32 65.7699C85.4989 64.6629 85.8635 63.7315 86.4137 62.9759C86.9639 62.2202 87.6351 61.6484 88.4272 61.2607C89.2193 60.8729 90.0662 60.679 90.9677 60.679C91.9156 60.679 92.7392 60.8878 93.4386 61.3054C94.1412 61.723 94.6516 62.3345 94.9698 63.1399C95.2913 63.9453 95.3559 64.928 95.1637 66.0881ZM92.3796 65.7699C92.4724 65.1866 92.479 64.696 92.3995 64.2983C92.32 63.8973 92.1526 63.5956 91.8974 63.3935C91.6422 63.188 91.2991 63.0852 90.8683 63.0852C90.3777 63.0852 89.9435 63.2045 89.5657 63.4432C89.1879 63.6818 88.8746 64.0249 88.6261 64.4723C88.3775 64.9197 88.2035 65.4583 88.104 66.0881C87.998 66.678 87.988 67.1686 88.0742 67.5597C88.1637 67.9508 88.3394 68.2441 88.6012 68.4396C88.8664 68.6352 89.2111 68.733 89.6353 68.733C90.1192 68.733 90.5468 68.617 90.918 68.3849C91.2925 68.1529 91.6024 67.8165 91.8477 67.3757C92.0962 66.9349 92.2736 66.3996 92.3796 65.7699ZM99.1472 66.7045L98.4313 71H95.687L96.9597 63.3636H99.5648L99.3262 64.8153H99.4057C99.6477 64.3281 100.001 63.9486 100.465 63.6768C100.932 63.4018 101.447 63.2642 102.011 63.2642C102.551 63.2642 103 63.3868 103.358 63.6321C103.716 63.8774 103.97 64.2154 104.119 64.6463C104.268 65.0772 104.294 65.571 104.198 66.1278L103.383 71H100.639L101.355 66.7045C101.418 66.3267 101.371 66.0301 101.215 65.8146C101.063 65.5992 100.811 65.4915 100.46 65.4915C100.238 65.4915 100.034 65.5412 99.8482 65.6406C99.6659 65.7367 99.5134 65.8759 99.3908 66.0582C99.2715 66.2372 99.1903 66.4527 99.1472 66.7045ZM109.153 60.8182L107.462 71H104.718L106.408 60.8182H109.153ZM108.86 71L110.133 63.3636H112.877L111.605 71H108.86ZM111.625 62.5682C111.253 62.5682 110.953 62.4455 110.725 62.2003C110.496 61.9517 110.412 61.6567 110.471 61.3153C110.531 60.9673 110.713 60.6723 111.018 60.4304C111.323 60.1851 111.661 60.0625 112.032 60.0625C112.407 60.0625 112.705 60.1851 112.927 60.4304C113.149 60.6723 113.232 60.9673 113.176 61.3153C113.123 61.6567 112.944 61.9517 112.639 62.2003C112.337 62.4455 111.999 62.5682 111.625 62.5682ZM116.483 66.7045L115.767 71H113.023L114.296 63.3636H116.901L116.662 64.8153H116.742C116.984 64.3281 117.337 63.9486 117.801 63.6768C118.268 63.4018 118.783 63.2642 119.347 63.2642C119.887 63.2642 120.336 63.3868 120.694 63.6321C121.052 63.8774 121.306 64.2154 121.455 64.6463C121.604 65.0772 121.63 65.571 121.534 66.1278L120.719 71H117.975L118.691 66.7045C118.753 66.3267 118.707 66.0301 118.551 65.8146C118.399 65.5992 118.147 65.4915 117.796 65.4915C117.574 65.4915 117.37 65.5412 117.184 65.6406C117.002 65.7367 116.849 65.8759 116.727 66.0582C116.607 66.2372 116.526 66.4527 116.483 66.7045ZM125.693 71.1392C124.878 71.1392 124.202 70.9834 123.665 70.6719C123.128 70.357 122.75 69.9062 122.531 69.3196C122.312 68.7296 122.273 68.0237 122.412 67.2017C122.544 66.4129 122.818 65.7235 123.232 65.1335C123.65 64.5436 124.175 64.0845 124.808 63.7564C125.444 63.4283 126.157 63.2642 126.946 63.2642C127.523 63.2642 128.028 63.3537 128.462 63.5327C128.9 63.7116 129.256 63.9718 129.531 64.3132C129.806 64.6546 129.992 65.0672 130.088 65.5511C130.187 66.0317 130.187 66.5753 130.088 67.1818L129.988 67.8182H123.167L123.406 66.3068H127.702C127.735 66.0881 127.713 65.8958 127.637 65.7301C127.564 65.5611 127.446 65.4302 127.284 65.3374C127.125 65.2412 126.933 65.1932 126.707 65.1932C126.482 65.1932 126.27 65.2412 126.071 65.3374C125.875 65.4335 125.708 65.5677 125.569 65.7401C125.433 65.9124 125.342 66.1146 125.295 66.3466L124.997 67.9375C124.957 68.1828 124.972 68.4015 125.042 68.5938C125.111 68.786 125.232 68.9368 125.405 69.0462C125.577 69.1555 125.799 69.2102 126.071 69.2102C126.256 69.2102 126.432 69.1854 126.598 69.1357C126.767 69.0826 126.916 69.0064 127.045 68.907C127.178 68.8042 127.284 68.6799 127.363 68.5341H129.869C129.69 69.0644 129.407 69.5251 129.019 69.9162C128.635 70.304 128.161 70.6056 127.597 70.821C127.037 71.0331 126.402 71.1392 125.693 71.1392ZM136.428 65.9091L136.09 67.9773H131.317L131.655 65.9091H136.428ZM140.875 71.1392C140.046 71.1392 139.364 70.9751 138.827 70.647C138.29 70.3156 137.914 69.8549 137.698 69.2649C137.483 68.6716 137.441 67.9839 137.574 67.2017C137.7 66.4195 137.968 65.7334 138.379 65.1435C138.794 64.5502 139.324 64.0895 139.97 63.7614C140.62 63.4299 141.359 63.2642 142.188 63.2642C142.937 63.2642 143.561 63.4001 144.062 63.6719C144.566 63.9403 144.925 64.3215 145.141 64.8153C145.359 65.3059 145.416 65.8826 145.31 66.5455H142.764C142.794 66.1477 142.729 65.8428 142.57 65.6307C142.415 65.4186 142.188 65.3125 141.889 65.3125C141.644 65.3125 141.419 65.3821 141.213 65.5213C141.011 65.6572 140.837 65.8643 140.691 66.1428C140.549 66.4179 140.444 66.7642 140.378 67.1818C140.312 67.5994 140.303 67.9474 140.353 68.2259C140.406 68.5009 140.509 68.7081 140.661 68.8473C140.817 68.9832 141.014 69.0511 141.253 69.0511C141.458 69.0511 141.647 69.0047 141.82 68.9119C141.995 68.8158 142.146 68.6766 142.272 68.4943C142.401 68.3087 142.499 68.0833 142.565 67.8182H145.111C144.985 68.4943 144.731 69.081 144.35 69.5781C143.969 70.0753 143.483 70.4598 142.893 70.7315C142.304 71.0033 141.631 71.1392 140.875 71.1392ZM145.706 71L146.979 63.3636H149.723L148.45 71H145.706ZM148.47 62.5682C148.099 62.5682 147.799 62.4455 147.57 62.2003C147.342 61.9517 147.257 61.6567 147.317 61.3153C147.377 60.9673 147.559 60.6723 147.864 60.4304C148.169 60.1851 148.507 60.0625 148.878 60.0625C149.253 60.0625 149.551 60.1851 149.773 60.4304C149.995 60.6723 150.078 60.9673 150.021 61.3153C149.968 61.6567 149.789 61.9517 149.485 62.2003C149.183 62.4455 148.845 62.5682 148.47 62.5682ZM153.329 66.7045L152.613 71H149.869L151.141 63.3636H153.746L153.508 64.8153H153.587C153.829 64.3281 154.182 63.9486 154.646 63.6768C155.114 63.4018 155.629 63.2642 156.192 63.2642C156.733 63.2642 157.182 63.3868 157.54 63.6321C157.898 63.8774 158.151 64.2154 158.3 64.6463C158.45 65.0772 158.476 65.571 158.38 66.1278L157.565 71H154.82L155.536 66.7045C155.599 66.3267 155.553 66.0301 155.397 65.8146C155.245 65.5992 154.993 65.4915 154.641 65.4915C154.419 65.4915 154.215 65.5412 154.03 65.6406C153.848 65.7367 153.695 65.8759 153.572 66.0582C153.453 66.2372 153.372 66.4527 153.329 66.7045ZM162.539 71.1392C161.723 71.1392 161.047 70.9834 160.51 70.6719C159.973 70.357 159.596 69.9062 159.377 69.3196C159.158 68.7296 159.118 68.0237 159.257 67.2017C159.39 66.4129 159.663 65.7235 160.078 65.1335C160.495 64.5436 161.021 64.0845 161.654 63.7564C162.29 63.4283 163.003 63.2642 163.792 63.2642C164.368 63.2642 164.874 63.3537 165.308 63.5327C165.745 63.7116 166.102 63.9718 166.377 64.3132C166.652 64.6546 166.837 65.0672 166.934 65.5511C167.033 66.0317 167.033 66.5753 166.934 67.1818L166.834 67.8182H160.013L160.252 66.3068H164.547C164.58 66.0881 164.559 65.8958 164.483 65.7301C164.41 65.5611 164.292 65.4302 164.13 65.3374C163.971 65.2412 163.778 65.1932 163.553 65.1932C163.328 65.1932 163.115 65.2412 162.917 65.3374C162.721 65.4335 162.554 65.5677 162.414 65.7401C162.279 65.9124 162.187 66.1146 162.141 66.3466L161.843 67.9375C161.803 68.1828 161.818 68.4015 161.887 68.5938C161.957 68.786 162.078 68.9368 162.25 69.0462C162.423 69.1555 162.645 69.2102 162.917 69.2102C163.102 69.2102 163.278 69.1854 163.444 69.1357C163.613 69.0826 163.762 69.0064 163.891 68.907C164.024 68.8042 164.13 68.6799 164.209 68.5341H166.715C166.536 69.0644 166.252 69.5251 165.865 69.9162C165.48 70.304 165.006 70.6056 164.443 70.821C163.883 71.0331 163.248 71.1392 162.539 71.1392ZM167.437 71L168.71 63.3636H171.315L171.076 64.8153H171.156C171.391 64.3381 171.724 63.9602 172.155 63.6818C172.586 63.4034 173.068 63.2642 173.602 63.2642C174.135 63.2642 174.573 63.4067 174.914 63.6918C175.256 63.9735 175.428 64.348 175.431 64.8153H175.511C175.716 64.348 176.053 63.9735 176.52 63.6918C176.987 63.4067 177.506 63.2642 178.076 63.2642C178.802 63.2642 179.354 63.4995 179.732 63.9702C180.113 64.4408 180.237 65.0672 180.105 65.8494L179.249 71H176.505L177.261 66.5455C177.307 66.2107 177.261 65.9489 177.122 65.7599C176.982 65.5677 176.77 65.4716 176.485 65.4716C176.204 65.4716 175.965 65.5677 175.769 65.7599C175.577 65.9489 175.458 66.2107 175.411 66.5455L174.656 71H172.031L172.786 66.5455C172.833 66.2107 172.786 65.9489 172.647 65.7599C172.508 65.5677 172.296 65.4716 172.011 65.4716C171.825 65.4716 171.656 65.5147 171.504 65.6009C171.355 65.687 171.23 65.8113 171.131 65.9737C171.035 66.1328 170.97 66.3234 170.937 66.5455L170.181 71H167.437ZM182.691 71.1193C182.207 71.1193 181.791 71.0398 181.443 70.8807C181.098 70.7183 180.847 70.473 180.688 70.1449C180.532 69.8134 180.497 69.3958 180.583 68.892C180.653 68.4744 180.784 68.1181 180.976 67.8232C181.168 67.5282 181.407 67.2862 181.692 67.0973C181.977 66.9084 182.297 66.7642 182.651 66.6648C183.009 66.562 183.387 66.4957 183.785 66.4659C184.216 66.4328 184.565 66.3913 184.834 66.3416C185.102 66.2919 185.303 66.224 185.435 66.1378C185.568 66.0516 185.647 65.9356 185.674 65.7898V65.7699C185.704 65.571 185.651 65.4186 185.515 65.3125C185.382 65.2064 185.197 65.1534 184.958 65.1534C184.7 65.1534 184.476 65.2098 184.287 65.3224C184.101 65.4351 183.974 65.6108 183.904 65.8494H181.379C181.485 65.3854 181.702 64.9579 182.03 64.5668C182.361 64.1723 182.8 63.8575 183.347 63.6222C183.897 63.3835 184.554 63.2642 185.316 63.2642C185.86 63.2642 186.337 63.3288 186.748 63.4581C187.159 63.584 187.499 63.7614 187.767 63.9901C188.039 64.2154 188.229 64.4806 188.339 64.7855C188.451 65.0871 188.478 65.4152 188.418 65.7699L187.543 71H184.978L185.157 69.9261H185.097C184.898 70.2112 184.675 70.4415 184.426 70.6172C184.181 70.7929 183.912 70.9205 183.621 71C183.332 71.0795 183.022 71.1193 182.691 71.1193ZM183.884 69.3892C184.09 69.3892 184.292 69.3461 184.491 69.2599C184.69 69.1738 184.86 69.0495 185.003 68.8871C185.145 68.7247 185.237 68.5275 185.276 68.2955L185.376 67.6591C185.303 67.6889 185.222 67.7171 185.132 67.7436C185.046 67.7668 184.955 67.79 184.859 67.8132C184.766 67.8364 184.666 67.858 184.56 67.8778C184.458 67.8977 184.352 67.9176 184.242 67.9375C184.023 67.9706 183.839 68.0253 183.69 68.1016C183.541 68.1745 183.425 68.2656 183.342 68.375C183.259 68.4811 183.208 68.6004 183.188 68.733C183.158 68.9418 183.206 69.1042 183.332 69.2202C183.462 69.3329 183.646 69.3892 183.884 69.3892Z" fill="#F3F3F3"/>
<defs>
<linearGradient id="paint0_linear_12_10" x1="0" y1="18.5" x2="134" y2="18.5" gradientUnits="userSpaceOnUse">
<stop stop-color="#C14F4F"/>
<stop offset="1" stop-color="#5B2525"/>
</linearGradient>
<linearGradient id="paint1_linear_12_10" x1="139" y1="18.5" x2="274" y2="18.5" gradientUnits="userSpaceOnUse">
<stop stop-color="#C14F4F"/>
<stop offset="1" stop-color="#5B2525"/>
</linearGradient>
</defs>
</svg>
